<svg xmlns="http://www.w3.org/2000/svg" xmlns:xlink="http://www.w3.org/1999/xlink" width="480.481" height="480.481" viewBox="0 0 480.481 480.481">
  <defs>
    <clipPath id="clip-path">
      <rect id="Rectangle_13" data-name="Rectangle 13" width="480.481" height="480.481" fill="none"/>
    </clipPath>
  </defs>
  <g id="Group_12" data-name="Group 12" transform="translate(0 0)" opacity="0.5">
    <g id="Group_11" data-name="Group 11" transform="translate(0 0)" clip-path="url(#clip-path)">
      <path id="Path_52" data-name="Path 52" d="M254.316,55.2,289.071,6.076c7.684-10.871,24.742-6.3,25.964,6.958l5.532,59.927a17.24,17.24,0,0,0,24.379,14.075l54.664-25.172c12.093-5.57,24.577,6.914,19.012,19l-25.177,54.664a17.246,17.246,0,0,0,14.075,24.385l59.938,5.526c13.249,1.222,17.818,18.28,6.958,25.97l-49.144,34.749a17.248,17.248,0,0,0,0,28.155l49.144,34.755c10.86,7.684,6.292,24.742-6.958,25.964l-59.938,5.532a17.24,17.24,0,0,0-14.075,24.379l25.177,54.664c5.565,12.093-6.919,24.577-19.012,19.012l-54.664-25.177a17.24,17.24,0,0,0-24.379,14.075l-5.532,59.932c-1.222,13.255-18.28,17.823-25.964,6.958l-34.755-49.138a17.248,17.248,0,0,0-28.155,0l-34.749,49.138c-7.69,10.866-24.748,6.3-25.97-6.958l-5.526-59.932a17.246,17.246,0,0,0-24.385-14.075L80.866,418.621c-12.088,5.565-24.577-6.919-19.007-19.012l25.172-54.664a17.238,17.238,0,0,0-14.075-24.379l-59.921-5.532c-13.26-1.222-17.834-18.28-6.958-25.964L55.2,254.314a17.242,17.242,0,0,0,0-28.155L6.078,191.41c-10.877-7.69-6.3-24.748,6.958-25.97l59.921-5.526a17.244,17.244,0,0,0,14.075-24.385L61.86,80.864c-5.57-12.088,6.919-24.572,19.007-19l54.664,25.172A17.246,17.246,0,0,0,159.916,72.96l5.526-59.927c1.222-13.26,18.28-17.829,25.97-6.958L226.161,55.2a17.237,17.237,0,0,0,28.155,0" transform="translate(-0.001 -0.001)" fill="#545a65"/>
    </g>
  </g>
</svg>
