<svg id="Group_9" data-name="Group 9" xmlns="http://www.w3.org/2000/svg" xmlns:xlink="http://www.w3.org/1999/xlink" width="122.591" height="122.591" viewBox="0 0 122.591 122.591">
  <defs>
    <clipPath id="clip-path">
      <rect id="Rectangle_8" data-name="Rectangle 8" width="122.591" height="122.591" fill="none"/>
    </clipPath>
  </defs>
  <g id="Group_7" data-name="Group 7" transform="translate(0 0)" clip-path="url(#clip-path)">
    <path id="Path_51" data-name="Path 51" d="M58.233,2.347h0a3.172,3.172,0,0,1,6.125,0,79.2,79.2,0,0,0,55.885,55.885,3.172,3.172,0,0,1,0,6.125,79.2,79.2,0,0,0-55.885,55.885,3.172,3.172,0,0,1-6.125,0A79.2,79.2,0,0,0,2.347,64.358a3.172,3.172,0,0,1,0-6.125A79.2,79.2,0,0,0,58.233,2.347" transform="translate(0 0)" fill="#5382a5"/>
  </g>
</svg>
