<?xml version="1.0" encoding="UTF-8"?>
<svg id="Layer_1" data-name="Layer 1" xmlns="http://www.w3.org/2000/svg" viewBox="0 0 3243.79 506.7">
  <defs>
    <style>
      .cls-1 {
        fill: #29313e;
      }
    </style>
  </defs>
  <g>
    <path class="cls-1" d="m307.04,188.58c118.77,34.26,104.8,204.11-48.06,204.11H84.37c-8.92,0-7.14-7-7.14-21.41,0-4.76,2.39-7.14,7.14-7.14,23.31,0,35.21-15.22,35.21-45.19V109.6c0-29.97-11.9-45.19-35.21-45.19-8.92,0-7.14-6.98-7.14-21.41,0-10.96-.28-7.14,160.34-7.14,114.19,0,160.58,106.44,69.46,152.73Zm-23.31-66.61c0-36.16-21.89-57.57-59.47-57.57h-29.02v115.14h27.12c39.01,0,61.38-21.41,61.38-57.57Zm30.92,165.57c0-75.32-64.87-74.22-119.41-74.22v105.63c0,29.02,10.94,45.19,31.4,45.19h11.9c48.06,0,76.12-28.54,76.12-76.6Z"/>
    <path class="cls-1" d="m520.13,371.28c0,13.01,2.15,21.41-8.08,21.41-142.82,0-142.74,2.85-142.74-7.14,0-14.47-1.72-21.41,7.14-21.41,25.31,0,35.21-20.55,35.21-45.19,0-202.78,7.33-229.91-28.08-233.61-7.11-.74-5.71-4.04-5.71-22.36,0-8.82,51.91-17.6,94.68-49.96,6.25-6.25,4.28-7.59,4.28,305.45,0,25.08,10.5,45.67,36.16,45.67,4.76,0,7.14,2.38,7.14,7.14Z"/>
    <path class="cls-1" d="m794.15,351.29c6.46.67,5.23,3.22,5.23,21.89,0,16.84-28.24-6.38-94.2,24.74-8.69,4.1-6.38,2.4,1.91-60.43-13.32,26.64-42.35,61.37-86.12,61.37-147.92,0-29.98-215.52-116.09-215.52-5.45,0-9.03-.84-9.03-7.14,0-13.31-1.85-21.41,7.14-21.41,103.44,0,103.71-2.71,103.71,7.14v147.97c0,25.69,4.28,47.1,34.26,47.1,23.78,0,49.95-20.46,58.05-40.44v-88.02c0-24.49-10.72-45.19-35.69-45.19-8.92,0-7.14-6.98-7.14-21.41,0-9.8,1.36-7.14,102.77-7.14,10.19,0,7.14-.34,7.14,141.79,0,25.21,1.89,51.98,28.08,54.71Z"/>
    <path class="cls-1" d="m992.01,323.7c3.76-5.54,9.56-.74,22.85,7.14,9.05,6.04-25.17,68.04-96.59,68.04-166.58,0-169.72-250.25-14.27-250.25,79.83,0,110.18,91.44,93.72,98.49l-137.97,60.42c25.03,60.99,96.13,69.37,132.26,16.18Zm-142.26-82.31c0,9.52.48,25.21,4.29,36.63l76.6-38.54c0-71.08-80.89-69.17-80.89,1.91Z"/>
  </g>
  <g>
    <path class="cls-1" d="m1365.61,395.08c-2.57,5.27-7.1,5.23-9.97,2.37-7.41-7.39.08-4.74-271.49-4.74-4.74,0-7.12-2.37-7.12-7.12,0-13.24-1.86-21.36,7.12-21.36,26.72,0,35.12-18.37,35.12-45.08V110.78c0-29.9-11.39-45.09-34.65-45.09-5.07,0-7.6-3.01-7.6-7.12,0-13.65-1.75-21.83,7.12-21.83,246.78,0,241.87,1.65,246.81-2.37,11.45-9.34,8.57-7.3,50.31,64.55,2.36,3.55,2,7.45-2.38,9.97-26.07,14.96-25.13,16.05-31.32,5.7-31.37-52.49-57.03-44.14-152.82-44.14v111.53c42.6,0,86.85,7.05,86.85-35.12,0-8.84,6.83-7.12,21.35-7.12,10.17,0,7.12.35,7.12,114.86,0,8.84-6.83,7.12-21.35,7.12-7.43,0-7.12-5.35-7.12-9.97,0-37.99-47.06-31.8-86.85-31.8,0,92.73-8.25,139.06,32.74,139.06,80.7,0,117.07,1.29,153.3-71.19,5.91-11.83,10.49-6.29,26.58,3.32,8.76,5.23,7.4,3.06-41.76,103.95Z"/>
    <path class="cls-1" d="m1645.08,162.51c0,13.25,1.86,21.36-7.12,21.36-26.82,0-14.76-8.3-171.81,306.6-1.9,3.8-5.27,5.33-9.49,3.32-25.75-12.29-31.57-13.82-28.01-21.83l53.15-113.9c-84.97-175.72-80.25-174.18-98.24-174.18-8.97,0-7.12-8.02-7.12-21.36,0-10.12,0-7.12,116.75-7.12,8.86,0,7.12,6.91,7.12,21.36,0,5.12-2.94,7.12-8.06,7.12-30.6,0-11.14,29.64,27.53,113.9,38.07-78.26,60.64-113.9,35.12-113.9-8.37,0-15.67,1.34-15.67-7.12,0-14.59-1.7-21.36,7.13-21.36,96.58,0,98.71-3.05,98.71,7.12Z"/>
    <path class="cls-1" d="m1837.25,323.88c3.75-5.52,9.54-.74,22.79,7.12,9.02,6.03-25.11,67.87-96.35,67.87-166.17,0-169.31-249.64-14.24-249.64,79.63,0,109.91,91.22,93.49,98.24l-137.63,60.27c24.97,60.84,95.89,69.2,131.93,16.14Zm-141.91-82.11c0,9.49.48,25.15,4.28,36.54l76.41-38.44c0-70.9-80.69-69-80.69,1.9Z"/>
  </g>
  <g>
    <path class="cls-1" d="m2156.31,189.1c118.48,34.17,104.54,203.61-47.94,203.61h-174.19c-8.82,0-7.12-6.79-7.12-21.35,0-4.75,2.38-7.12,7.12-7.12,23.26,0,35.12-15.19,35.12-45.08V110.3c0-29.9-11.87-45.08-35.12-45.08-8.9,0-7.12-6.98-7.12-21.36,0-10.93-.3-7.12,159.95-7.12,113.91,0,160.19,106.18,69.29,152.36Zm-23.26-66.45c0-36.07-21.83-57.42-59.33-57.42h-28.95v114.86h27.05c38.92,0,61.23-21.35,61.23-57.43Zm30.84,165.17c0-75.14-64.71-74.04-119.12-74.04v105.37c0,28.95,10.91,45.08,31.32,45.08h11.87c47.94,0,75.93-28.47,75.93-76.41Z"/>
    <path class="cls-1" d="m2383.11,371.35c0,12.98,2.15,21.35-8.06,21.35-142.47,0-142.39,2.85-142.39-7.12,0-14.44-1.72-21.36,7.12-21.36,25.22,0,35.12-20.47,35.12-45.08,0-58.21,5.58-97.09-28.01-100.62-7.1-.75-5.69-4.07-5.69-22.31,0-10.43,51.89-11.52,94.45-54.58,6.2-6.27,4.27-7.59,4.27,177.03,0,25.01,10.48,45.56,36.07,45.56,4.75,0,7.12,2.37,7.12,7.12Zm-50.79-318c16.39,16.39,15.51,31.97,0,47.47-16.15,16.15-31.35,15.71-47.94,0-15.36-14.51-16.47-30.99,0-47.47,16.62-16.62,32.68-15.26,47.94,0Z"/>
    <path class="cls-1" d="m2573.87,227.06c-50.21-63.14-118.18-57.99-118.18-24.68,0,52.34,159.94,23.49,159.94,118.65,0,44.61-37.96,77.83-99.67,77.83-45.8,0-68.13-26.25-61.7-7.12,1.63,4.85,1.54,7.6-4.75,7.6-18.69,0-21.81,1.31-25.15-4.75-43.93-79.71-42.24-78.18-42.24-80.68,0-4.65,3.87-5.74,18.51-14.24,4.12-2.06,6.13-2.47,9.49,2.85,29.78,47.2,68.83,64.07,107.74,64.07,29.43,0,45.56-9.01,45.56-27.06,0-54.2-162.31-25.33-162.31-124.82,0-67.49,91.2-80.56,144.28-49.83,8.29,4.15,1.9-6.28,1.9-12.34s6.17-4.74,18.51-4.74c8.18,0,5.68-.85,31.8,65.49,2.83,5.68,1.12,8.14-2.38,9.97-9.34,4.88-15.69,10.92-21.35,3.8Z"/>
    <path class="cls-1" d="m2869.52,276.42c0,70.24-56.01,122.45-119.13,122.45-71.67,0-124.83-60.27-124.83-127.67s53.63-121.97,119.13-121.97c72.62,0,124.83,63.12,124.83,127.2Zm-139.54-88.76c-26.1,0-47.94,20.41-47.94,54.11,0,43.19,36.07,118.65,83.06,118.65,91.21,0,33.79-172.77-35.12-172.77Z"/>
    <path class="cls-1" d="m3125.27,319.14c0,38.86,13.7,45.08,34.17,45.08,8.86,0,7.12,6.91,7.12,21.36,0,10.39.38,7.12-133.36,7.12-8.96,0-7.12-7.98-7.12-21.35,0-7.34,5.7-7.12,10.43-7.12,28.57,0,22.31-45.31,22.31-126.24,0-30.38-7.6-46.99-34.17-46.99-23.74,0-49.84,20.41-57.9,40.81v87.33c0,25.63,11.86,45.08,30.38,45.08,4.84,0,8.06,1.34,8.06,7.12,0,14.44,1.72,21.35-7.12,21.35-140.81,0-140.49,3.41-140.49-7.12,0-14.44-1.72-21.36,7.12-21.36,25.07,0,35.6-20.23,35.6-45.08,0-72.02,5.65-110.67-28.49-114.38-6.57-.71-5.22-4.44-5.22-22.31,0-3.8,1.88-5.32,6.64-6.17,86.42-15.42,99.9-47.8,97.3-30.85-19.75,128.98-12.56,3.8,74.04,3.8,93.79,0,80.68,75.56,80.68,169.91Z"/>
  </g>
</svg>