<?xml version="1.0" encoding="UTF-8"?>
<svg id="Layer_1" data-name="Layer 1" xmlns="http://www.w3.org/2000/svg" viewBox="0 0 96 96">
  <defs>
    <style>
      .cls-1 {
        fill: #2a2a2a;
      }
    </style>
  </defs>
  <path class="cls-1" d="m28.57,15.36s-.11.02-.18,0c-1.1-.34-1.87-.27-2.48.15-.38.26-.55.65-.27,1.07.35.52,1.06.36,1.7.15,1.28-.42,2.63-.81,3.34.25.65.96.36,2.15-.93,3.02-.42.28-.86.41-1.32.48-.06,0-.1.02-.12.04-.04.03-.05.06-.02.11.01.02.04.04.07.07.04.03.06.04.08.07.04.06.02.1-.07.16l-.35.24c-.08.06-.16.07-.24.02l-1.92-1.02s-.07-.04-.08-.07c-.03-.05-.03-.11,0-.17l.19-.38s.04-.07.07-.08c.05-.03.1-.03.18,0,1.28.54,2.39.46,3.19-.09.61-.41.74-.95.45-1.37-.42-.62-.95-.45-2.16-.06-1.1.36-2.36.58-3.04-.43-.62-.93-.15-1.87.86-2.56.52-.35,1-.43,1.27-.45.12,0,.18-.02.21-.04s.03-.04,0-.07c-.03-.05-.13-.12-.19-.21-.05-.07-.03-.13.06-.19l.25-.17c.09-.06.16-.06.25,0l1.34.92s.08.05.09.08c.03.04.03.09,0,.16l-.15.29s-.04.07-.07.09Z"/>
  <path class="cls-1" d="m34.51,16.61c.33-.15.63-.5.73-1.02,0-.03.02-.06.04-.07.05-.02.06-.02.38.01.03,0,.05.02.06.05.02.04.02.1.01.15-.05.67-.35,1.26-1.13,1.61-1.28.58-2.49-.01-2.99-1.13-.64-1.43.02-2.41.93-2.82,1.01-.46,2,.2,2.26.78.02.04.02.08-.03.12l-1.79,1.99c.37.35.94.58,1.53.31Zm-1.89-2.5c-.42.19-.51.69-.29,1.19.07.15.19.41.34.56l.96-1.19c-.22-.49-.65-.73-1.01-.57Z"/>
  <path class="cls-1" d="m38.99,15.03c.35-.1.7-.41.86-.91,0-.03.03-.05.05-.06.05-.01.07-.01.37.07.03,0,.04.03.05.06.01.04,0,.1,0,.15-.14.65-.52,1.2-1.35,1.44-1.34.4-2.46-.36-2.81-1.54-.44-1.51.36-2.38,1.32-2.67,1.07-.31,1.95.48,2.13,1.1.01.04,0,.08-.04.12l-2.05,1.72c.32.4.85.7,1.47.52Zm-1.52-2.74c-.45.13-.6.61-.45,1.14.05.16.13.43.26.61l1.11-1.04c-.15-.52-.54-.81-.92-.7Z"/>
  <path class="cls-1" d="m52.03,13.97c.08,0,.13.04.12.13v.25c0,.08-.05.13-.13.12l-2.08-.03c-.08,0-.13-.04-.12-.13v-.25c0-.08.06-.13.13-.13.41,0,.62-.34.63-.79l.05-3.21-2.05,4.02c-.03.06-.08.09-.14.09h-.78c-.07-.01-.12-.05-.15-.11l-1.92-4.08-.05,3.21c0,.46.19.81.6.81.08,0,.13.04.12.13v.25c0,.08-.06.13-.13.12l-2.08-.03c-.08,0-.13-.04-.12-.13v-.25c0-.08.05-.13.13-.12.41,0,.63-.34.64-.79l.07-4.4c-.16-.1-.34-.13-.52-.14-.08,0-.13-.04-.12-.13v-.25c0-.08.05-.13.13-.13l1.59.03c.07,0,.13.02.15.08l2.08,4.41,2.22-4.34c.03-.06.09-.07.15-.07l1.59.03c.08,0,.13.04.12.13v.25c0,.08-.05.13-.13.13-.19,0-.36.03-.52.12l-.07,4.4c0,.46.2.81.61.81Z"/>
  <path class="cls-1" d="m57.87,11.54l-.05.25c-.02.07-.07.12-.15.1l-.12-.02c-.17-.04-.3.05-.58.42l-3.38,4.36c-.05.06-.11.07-.18.02l-.38-.3c-.07-.05-.08-.11-.03-.18l1.33-1.8-.7-2.77c-.12-.45-.16-.58-.37-.62h-.02c-.08-.02-.11-.08-.1-.15l.05-.25c.02-.08.07-.12.15-.1l1.91.39c.08.02.12.07.1.15l-.05.25c-.02.07-.07.12-.15.1h-.02c-.19-.04-.28.03-.31.16-.03.14.02.37.08.6l.31,1.33.84-1.11c.16-.21.3-.41.33-.55.02-.11-.02-.19-.15-.21l-.15-.03c-.08-.02-.11-.08-.1-.15l.05-.25c.02-.08.07-.12.15-.1l1.6.33c.08.02.12.07.1.15Z"/>
  <path class="cls-1" d="m66.23,19.19l-.11.23c-.04.08-.09.09-.17.06l-2.31-1.18c-.08-.04-.09-.1-.06-.17l.11-.23c.04-.08.09-.09.17-.06l.05.02c.25.13.45.02.56-.18.05-.11.08-.24.08-.4l-.04-1.63c-.16-.06-.33-.14-.5-.23l-.56-.29-.64,1.26c-.2.4-.23.78.14.97l.05.02c.08.04.09.1.06.17l-.11.23c-.04.08-.09.09-.17.06l-2.31-1.18c-.08-.04-.09-.1-.06-.17l.11-.23c.04-.08.09-.09.17-.06l.05.03c.38.2.66-.06.87-.46l1.68-3.32c.21-.41.23-.78-.19-1-.08-.04-.09-.1-.06-.17l.11-.23c.04-.08.09-.09.17-.06l2.76,1.41c1.22.62,1.64,1.76,1.2,2.62-.26.51-.77.91-1.57.89l.03,1.97c0,.47.02.91.39,1.1l.04.02c.08.04.09.1.06.17Zm-.07-4.73c.35-.7.12-1.37-.63-1.76l-.68-.35-1.13,2.24.44.22c1,.51,1.66.32,2.01-.36Z"/>
  <path class="cls-1" d="m68.69,20.83c.29.22.75.31,1.24.14.03-.01.06,0,.08,0,.04.03.05.05.17.34.01.03,0,.05-.01.07-.03.03-.08.07-.13.09-.6.28-1.26.31-1.96-.21-1.13-.84-1.2-2.19-.47-3.18.93-1.26,2.11-1.15,2.91-.56.9.66.8,1.85.42,2.37-.03.03-.06.05-.12.04l-2.6-.6c-.12.5-.05,1.1.48,1.49Zm1.25-2.87c-.37-.28-.85-.11-1.18.33-.1.14-.26.37-.33.57l1.5.26c.32-.44.31-.93,0-1.16Z"/>
  <path class="cls-1" d="m73.48,24.59s-.04.02-.06.04c-.74.29-1.47.06-2.01-.47-.9-.89-.66-2.36.26-3.15,1.07-.92,2.25-.62,2.93.05.8.78.7,1.5.38,2.03-.02.03-.02.04-.04.05-.04.04-.08.02-.14,0l-.87-.5s-.05-.03-.07-.04c-.04-.04-.02-.06,0-.08.03-.03.06-.05.12-.11.25-.25.33-.65,0-.98-.46-.45-1.09-.1-1.58.39-.58.6-.92,1.37-.31,1.97.32.31.76.43,1.21.33.05-.01.09,0,.11.03.02.02.03.04.04.07l.05.26c0,.05,0,.1-.03.13Z"/>
  <path class="cls-1" d="m75.35,27.61c.22.29.63.51,1.15.48.03,0,.06,0,.07.03.03.04.03.06.07.37,0,.03-.01.05-.03.07-.03.03-.1.04-.14.05-.66.1-1.3-.05-1.82-.74-.85-1.11-.56-2.44.41-3.19,1.24-.96,2.34-.53,2.95.26.68.89.27,2-.24,2.39-.03.03-.07.03-.13,0l-2.34-1.29c-.26.44-.35,1.05.05,1.57Zm1.99-2.42c-.28-.37-.79-.34-1.22,0-.13.1-.35.28-.47.46l1.37.66c.43-.33.55-.8.32-1.11Z"/>
  <path class="cls-1" d="m79.6,33.28c-.55.3-.61.57-.45.86l.03.06c.04.07.02.13-.05.17l-.22.12c-.07.04-.13.02-.17-.05l-1.06-1.99c-.04-.07-.02-.13.05-.17l.22-.12c.07-.04.14-.02.17.05l.03.05c.11.21.34.27.89-.03l1.27-.69c.48-.26.67-.52.45-.94-.2-.37-.74-.61-1.13-.57l-1.37.74c-.4.22-.61.57-.45.86h0c.04.09.02.15-.05.19l-.22.12c-.07.04-.13.02-.17-.05l-1.12-2.1c-.04-.07-.02-.13.05-.17l.22-.12c.07-.04.13-.02.17.05h0c.2.38.6.4,1,.18l.94-.51c.39-.21.79-.47.61-.91-.03-.07,0-.11.05-.13l.25-.14c.06-.03.1-.01.15.05.5.66,1.06,1.05,1.31,1.17.04.02.05.03.06.04h0s0,.03,0,.03c0,0-.01,0-.06.02l-.98.37c.45.03,1.18.15,1.55.83.58,1.08-.03,1.65-.71,2.02l-1.27.69Z"/>
  <path class="cls-1" d="m80.48,37.76s-.07,0-.11-.03l-.24-.18c-.29-.22-.63-.59-.78-.99-.18-.49-.05-1.02.88-1.37l1.47-.54c.43-.16.9-.34.69-.91-.03-.08,0-.13.08-.16l.24-.09c.08-.03.13,0,.16.08l.21.58.53-.2c.06-.02.12-.02.17.02.21.18.6.54,1.01.73.02.01.02.02.03.03v.02s0,.02-.01.02l-1.32.49.39,1.07c.03.07,0,.13-.08.16l-.34.13c-.08.03-.14,0-.16-.08l-.39-1.07-2.27.84c-.41.15-.49.34-.42.53.06.17.27.35.44.48.04.03.06.05.06.08.01.03.01.06-.03.11l-.16.2s-.04.04-.06.05Z"/>
  <path class="cls-1" d="m87.88,50.75h-.25c-.08.02-.13-.02-.13-.11-.02-.32-.39-.44-.84-.58l-5-1.46c-.07-.02-.1-.06-.11-.14l-.06-1.01c0-.08.03-.12.09-.15l3.29-1.44-3.43-1c-.07-.02-.11-.07-.11-.14l-.06-1.02c0-.07.03-.12.09-.15l4.8-2.1c.43-.19.79-.35.77-.67,0-.08.03-.13.12-.13h.25c.08-.02.13.02.13.11l.15,2.6c0,.08-.04.13-.12.13h-.25c-.08.02-.13-.03-.13-.11-.02-.35-.28-.65-.63-.63-.07,0-.14.03-.22.05l-3.74,1.61,3.5.95.37-.17c.43-.19.79-.36.77-.66,0-.08.03-.13.12-.13h.25c.08-.02.13.02.13.11l.15,2.59c0,.08-.04.13-.12.13h-.25c-.08.02-.13-.02-.13-.11v-.22c-.02-.2-.21-.45-.54-.43-.08,0-.16.03-.26.07l-3.79,1.62,3.89,1.06c.08.02.15.03.21.02.35-.02.58-.34.56-.69,0-.08.03-.13.12-.13h.25c.08-.02.13.02.13.11l.12,2.1c0,.08-.04.13-.12.13Z"/>
  <path class="cls-1" d="m82.84,55.38c-1.24-.18-2.01-1.31-1.85-2.42.19-1.27,1.38-2.05,2.57-1.87,1.22.18,2.01,1.26,1.84,2.42-.19,1.28-1.43,2.04-2.56,1.88Zm-.38-1.08c.77.11,2.18-.33,2.3-1.15.07-.46-.24-.9-.83-.99-.76-.11-2.18.33-2.3,1.16-.05.31.09.87.83.98Z"/>
  <path class="cls-1" d="m83.79,60.27c-.15.5-.56.83-1.11.66-.24-.07-.43-.15-.45-.37l-.07-.86s0-.05,0-.08c.01-.05.05-.06.09-.05.02,0,.05.02.07.04.13.11.27.16.38.2.29.09.47-.03.54-.25.11-.37-.19-.82-.45-1.03l-1.48-.46c-.44-.13-.83-.04-.95.36v.02c-.03.08-.08.11-.16.08l-.24-.07c-.08-.02-.11-.08-.08-.16l.72-2.36c.02-.08.08-.11.16-.08l.24.07c.08.02.11.08.08.16v.02c-.13.4.15.69.58.83l1.02.31c.43.13.89.24,1.07-.19.03-.08.08-.08.13-.06l.27.08c.06.02.08.07.07.15-.11.81.01,1.52.1,1.78,0,.03,0,.04,0,.05v.02s-.01.02-.03.01-.68-.34-1.02-.53c.53.48.69,1.14.52,1.72Z"/>
  <path class="cls-1" d="m77.36,65.12l-.23-.11c-.08-.04-.1-.09-.06-.17l.9-1.87c.04-.08.09-.1.17-.06l.24.11c.07.03.09.09.06.15l-.06.11c-.05.1-.06.22.02.26.03.01.08.02.14,0l1.57-.48-.07-.23-.45-.22c-.59-.29-.74-.31-.92.06-.03.07-.09.1-.17.06l-.23-.11c-.08-.04-.09-.1-.06-.17l.98-2.04c.04-.08.09-.1.17-.06l.23.11c.08.04.1.09.06.17-.18.37.04.71.45.91l2.85,1.38c.41.2.84.37,1.09-.03.04-.07.09-.06.14-.04l.26.13c.06.03.06.08.05.16-.12.94-.04,1.5.02,1.78,0,.03,0,.04,0,.05v.02s-.01.02-.03,0l-3.77-1.83.4,1.34c.02.06.04.09.08.11.05.03.12,0,.17-.1l.11-.23c.03-.06.09-.08.16-.04l.23.11c.08.04.1.09.06.17l-.81,1.69c-.04.08-.09.1-.17.06l-.23-.11c-.08-.04-.1-.09-.07-.15l.04-.09c.14-.3.09-.53-.08-1.1l-.24-.84-2.42.84c-.26.09-.36.14-.41.24v.02c-.04.06-.1.08-.17.04Z"/>
  <path class="cls-1" d="m76.94,72.42c-.13.15-.27.22-.54.24l-.75.06c-.26.02-.43-.03-.56-.14s-.22-.28-.24-.54l-.06-.75c-.02-.25.02-.43.14-.58.11-.14.28-.2.53-.23l.75-.07c.25-.02.43.04.56.16s.23.29.24.53l.06.76c.02.25-.02.43-.13.56Z"/>
  <path class="cls-1" d="m68.01,80.32s.11-.02.18,0c1.1.32,1.87.23,2.48-.19.37-.26.54-.66.25-1.08-.36-.51-1.06-.34-1.7-.12-1.27.44-2.62.85-3.35-.19-.66-.95-.39-2.14.88-3.04.41-.29.86-.43,1.31-.5.06,0,.1-.03.12-.04.04-.03.05-.06.01-.11-.01-.02-.04-.04-.07-.07-.04-.03-.06-.04-.08-.07-.04-.06-.02-.1.06-.16l.35-.24c.08-.06.16-.07.24-.02l1.93.99s.07.04.09.06c.03.05.04.11,0,.17l-.18.39s-.04.07-.06.09c-.05.03-.1.03-.18,0-1.29-.52-2.39-.42-3.19.14-.6.42-.72.96-.43,1.38.43.61.96.43,2.16.02,1.09-.37,2.35-.62,3.05.38.64.92.18,1.87-.81,2.57-.51.36-.99.45-1.26.48-.12,0-.18.02-.21.04-.03.02-.02.04,0,.07.03.05.13.11.19.2.05.07.03.13-.05.19l-.25.18c-.09.06-.16.06-.26,0l-1.35-.9s-.08-.05-.1-.08c-.03-.04-.03-.09,0-.16l.15-.29s.04-.07.06-.09Z"/>
  <path class="cls-1" d="m62.04,79.17c-.33.16-.63.51-.71,1.03,0,.03-.02.06-.04.07-.05.02-.06.02-.38,0-.03,0-.05-.02-.06-.05-.02-.04-.02-.1-.02-.15.04-.67.33-1.26,1.11-1.63,1.27-.6,2.49-.03,3.01,1.08.67,1.42.01,2.41-.88,2.84-1.01.48-2-.17-2.27-.75-.02-.04-.02-.08.03-.12l1.75-2.02c-.38-.35-.95-.56-1.53-.28Zm1.93,2.47c.42-.2.5-.7.27-1.2-.07-.15-.2-.4-.35-.56l-.94,1.2c.23.49.66.72,1.01.55Z"/>
  <path class="cls-1" d="m57.6,80.82c-.35.11-.69.42-.85.92,0,.03-.03.05-.05.06-.05.02-.07.01-.37-.06-.03,0-.04-.03-.05-.05-.01-.04,0-.1,0-.15.13-.65.5-1.2,1.32-1.46,1.34-.42,2.47.32,2.83,1.49.46,1.5-.32,2.39-1.27,2.69-1.06.33-1.96-.44-2.15-1.06-.01-.04,0-.08.04-.12l2.02-1.76c-.33-.39-.86-.69-1.48-.5Zm1.57,2.71c.44-.14.59-.62.43-1.15-.05-.16-.14-.43-.27-.6l-1.09,1.06c.16.52.56.8.93.69Z"/>
  <path class="cls-1" d="m44.52,82.16c-.08,0-.13-.04-.13-.12v-.25c0-.08.04-.13.12-.13l2.08-.03c.08,0,.13.04.13.12v.25c0,.08-.04.13-.12.13-.41,0-.61.36-.6.81l.05,3.21,1.93-4.08c.02-.06.07-.09.14-.1h.78c.07-.01.12.02.15.08l2.05,4.02-.05-3.21c0-.46-.22-.8-.63-.79-.08,0-.13-.04-.13-.13v-.25c0-.08.04-.13.12-.13l2.08-.03c.08,0,.13.04.13.12v.25c0,.08-.04.13-.12.13-.41,0-.62.36-.61.81l.07,4.4c.16.09.34.12.52.12.08,0,.13.04.13.12v.25c0,.08-.04.13-.12.13l-1.59.03c-.07,0-.13-.02-.15-.07l-2.22-4.34-2.08,4.41c-.02.06-.08.08-.15.08l-1.59.03c-.08,0-.13-.04-.13-.12v-.25c0-.08.04-.13.12-.13.19,0,.36-.04.52-.14l-.07-4.4c0-.46-.22-.8-.64-.79Z"/>
  <path class="cls-1" d="m38.78,84.63l.05-.25c.01-.07.06-.12.15-.1l.12.02c.17.03.3-.06.58-.43l3.3-4.42c.05-.06.11-.07.18-.03l.38.3c.07.05.08.11.04.18l-1.3,1.83.75,2.76c.12.45.17.57.38.61h.02c.08.02.11.08.1.15l-.05.25c-.02.08-.06.12-.15.1l-1.92-.36c-.08-.02-.12-.07-.1-.15l.05-.25c.01-.08.06-.12.15-.1h.02c.19.04.28-.03.31-.16.03-.14-.03-.37-.09-.6l-.33-1.32-.82,1.12c-.16.21-.29.41-.32.55-.02.11.03.19.16.21l.15.03c.08.02.12.07.1.15l-.05.25c-.02.08-.06.12-.15.1l-1.6-.3c-.08-.02-.12-.06-.1-.15Z"/>
  <path class="cls-1" d="m30.28,77.11l.11-.23c.04-.08.09-.1.17-.06l2.33,1.14c.08.04.1.09.06.17l-.11.23c-.04.08-.09.1-.17.06l-.05-.02c-.25-.12-.45-.01-.55.19-.05.11-.08.24-.07.4l.06,1.63c.16.06.33.13.5.22l.57.28.62-1.27c.2-.4.22-.79-.16-.97l-.05-.02c-.08-.04-.1-.09-.06-.17l.11-.23c.04-.08.09-.1.17-.06l2.33,1.14c.08.04.1.09.06.17l-.11.23c-.04.08-.09.1-.17.06l-.05-.03c-.39-.19-.66.07-.86.48l-1.63,3.35c-.2.41-.22.79.2.99.08.04.1.09.06.17l-.11.23c-.04.08-.09.1-.17.06l-2.78-1.36c-1.23-.6-1.67-1.73-1.25-2.6.25-.52.76-.92,1.56-.91l-.07-1.97c-.02-.47-.04-.91-.41-1.09l-.04-.02c-.08-.04-.1-.09-.06-.17Zm.15,4.73c-.34.7-.09,1.38.66,1.75l.68.33,1.1-2.26-.44-.22c-1.01-.49-1.67-.3-2,.4Z"/>
  <path class="cls-1" d="m27.79,75.51c-.3-.21-.75-.3-1.24-.12-.03.01-.06,0-.08,0-.04-.03-.05-.05-.18-.33-.01-.03,0-.05.01-.08.02-.03.08-.07.12-.09.6-.29,1.26-.33,1.96.18,1.14.82,1.24,2.17.52,3.17-.91,1.28-2.09,1.19-2.9.61-.91-.65-.83-1.84-.46-2.36.02-.03.06-.05.12-.04l2.61.55c.12-.5.03-1.1-.5-1.48Zm-1.21,2.89c.38.27.85.1,1.17-.35.1-.14.25-.37.32-.58l-1.5-.23c-.31.44-.3.93.02,1.16Z"/>
  <path class="cls-1" d="m22.94,71.83s.04-.03.06-.04c.74-.3,1.47-.08,2.02.44.92.87.7,2.34-.21,3.15-1.05.94-2.24.66-2.93,0-.81-.77-.72-1.49-.42-2.02.02-.03.02-.04.03-.05.03-.04.08-.03.14,0l.88.49s.05.03.07.04c.04.04.03.06,0,.08-.03.03-.06.06-.12.11-.24.26-.32.66.03.98.47.44,1.09.08,1.57-.42.57-.61.9-1.39.28-1.97-.32-.31-.77-.42-1.22-.31-.05.01-.09,0-.11-.03-.02-.02-.03-.04-.04-.07l-.05-.26c0-.05,0-.1.03-.13Z"/>
  <path class="cls-1" d="m21.03,68.84c-.23-.28-.64-.49-1.16-.46-.03,0-.06,0-.08-.03-.03-.04-.04-.06-.08-.37,0-.03.01-.05.03-.07.03-.03.1-.04.14-.05.66-.11,1.3.03,1.84.71.87,1.1.6,2.43-.36,3.19-1.22.98-2.33.57-2.95-.21-.69-.87-.3-1.99.2-2.4.03-.03.07-.03.13,0l2.36,1.25c.25-.45.33-1.05-.08-1.56Zm-1.95,2.45c.29.36.79.33,1.22-.01.13-.11.34-.29.46-.47l-1.38-.64c-.42.34-.54.81-.3,1.12Z"/>
  <path class="cls-1" d="m16.69,63.24c.54-.31.6-.58.44-.87l-.03-.06c-.04-.07-.02-.13.05-.17l.22-.12c.07-.04.13-.03.17.05l1.1,1.97c.04.07.03.13-.05.17l-.22.12c-.07.04-.14.02-.17-.05l-.03-.05c-.11-.21-.35-.26-.89.05l-1.26.71c-.47.26-.66.53-.43.94.21.37.75.6,1.14.55l1.35-.76c.4-.22.6-.58.44-.87h0c-.04-.09-.03-.15.05-.19l.22-.12c.07-.04.13-.03.17.05l1.16,2.08c.04.07.03.13-.05.17l-.22.12c-.07.04-.13.03-.17-.05h0c-.2-.38-.6-.39-1-.16l-.93.52c-.39.22-.79.48-.6.92.03.07,0,.11-.05.14l-.25.14c-.06.03-.1.02-.15-.05-.51-.65-1.07-1.03-1.33-1.15-.04-.02-.05-.03-.06-.04h0s0-.03,0-.03.01,0,.06-.03l.98-.38c-.45-.02-1.18-.13-1.56-.8-.6-1.07,0-1.65.68-2.03l1.26-.71Z"/>
  <path class="cls-1" d="m15.74,58.78s.07,0,.11.03l.24.18c.29.21.64.58.79.97.19.48.07,1.02-.86,1.38l-1.46.57c-.42.17-.89.36-.67.93.03.08,0,.13-.07.16l-.24.09c-.08.03-.13,0-.16-.07l-.22-.58-.53.2c-.06.02-.12.03-.17-.02-.21-.18-.61-.53-1.02-.71-.02,0-.02-.02-.03-.03v-.02s0-.02.01-.03l1.31-.51-.41-1.06c-.03-.07,0-.13.07-.16l.34-.13c.08-.03.14,0,.16.07l.41,1.06,2.25-.88c.41-.16.48-.35.41-.54-.07-.17-.28-.35-.44-.47-.04-.03-.06-.05-.06-.07-.01-.03-.01-.06.03-.11l.16-.21s.04-.04.06-.05Z"/>
  <path class="cls-1" d="m8.12,45.91l.25-.02c.08,0,.13.03.14.12.02.32.4.44.85.57l5.03,1.38c.07.02.11.06.11.14l.07,1.01c0,.08-.03.12-.09.15l-3.27,1.5,3.44.94c.07.02.11.07.11.14l.08,1.02c0,.07-.03.12-.09.15l-4.76,2.18c-.43.19-.79.36-.76.69,0,.08-.03.13-.12.14l-.25.02c-.08,0-.13-.03-.14-.12l-.19-2.59c0-.08.04-.13.12-.14l.25-.02c.08,0,.13.04.14.12.03.35.29.64.64.62.07,0,.14-.03.22-.06l3.71-1.67-3.52-.89-.37.17c-.43.2-.78.37-.76.68,0,.08-.03.13-.12.14l-.25.02c-.08,0-.13-.03-.14-.12l-.19-2.59c0-.08.04-.13.12-.14l.25-.02c.08,0,.13.03.14.12l.02.22c.02.2.2.44.53.42.08,0,.16-.03.26-.07l3.76-1.68-3.91-.99c-.08-.02-.15-.02-.21-.02-.35.03-.58.35-.55.7,0,.08-.03.13-.12.14l-.25.02c-.08,0-.13-.03-.14-.12l-.15-2.1c0-.08.04-.13.12-.14Z"/>
  <path class="cls-1" d="m13.09,41.2c1.24.16,2.03,1.27,1.89,2.39-.16,1.27-1.35,2.07-2.54,1.92-1.22-.16-2.03-1.23-1.88-2.39.17-1.29,1.4-2.07,2.53-1.92Zm.4,1.08c-.77-.1-2.17.37-2.28,1.19-.06.46.25.9.84.97.76.1,2.17-.37,2.28-1.2.04-.31-.11-.87-.85-.97Z"/>
  <path class="cls-1" d="m12.06,36.32c.14-.5.55-.84,1.1-.68.24.07.43.14.46.36l.09.85s0,.05,0,.08c-.01.05-.05.06-.09.05-.02,0-.05-.02-.07-.04-.14-.11-.27-.16-.38-.19-.29-.08-.47.04-.53.26-.11.37.2.82.47,1.02l1.49.43c.44.13.83.03.94-.37v-.02c.03-.08.08-.11.16-.09l.24.07c.08.02.11.08.09.16l-.68,2.37c-.02.08-.08.11-.16.09l-.24-.07c-.08-.02-.11-.08-.09-.16v-.02c.12-.4-.16-.69-.6-.82l-1.02-.3c-.43-.12-.89-.22-1.07.21-.03.08-.08.08-.13.07l-.28-.08c-.06-.02-.08-.07-.07-.15.1-.81-.04-1.52-.13-1.78,0-.03,0-.04,0-.05v-.02s0-.02.03-.01c.02,0,.69.33,1.03.51-.54-.47-.71-1.13-.55-1.71Z"/>
  <path class="cls-1" d="m18.41,31.37l.23.11c.08.04.1.09.06.17l-.87,1.88c-.04.08-.09.1-.17.06l-.24-.11c-.07-.03-.09-.09-.06-.15l.05-.12c.05-.1.06-.23-.02-.26-.03-.01-.08-.02-.14,0l-1.56.51.07.23.45.21c.6.28.74.3.92-.08.03-.07.09-.1.17-.06l.23.11c.08.04.09.1.06.17l-.95,2.05c-.04.08-.09.1-.17.06l-.23-.11c-.08-.04-.1-.09-.06-.17.17-.38-.06-.71-.47-.9l-2.87-1.34c-.41-.19-.85-.36-1.09.05-.04.07-.08.06-.14.04l-.26-.12c-.06-.03-.06-.07-.05-.15.11-.94.01-1.5-.05-1.78,0-.03,0-.04,0-.05v-.02s.01-.02.03,0l3.8,1.77-.42-1.33c-.02-.06-.04-.09-.08-.11-.05-.03-.12,0-.17.11l-.11.23c-.03.06-.08.08-.16.05l-.23-.11c-.08-.04-.1-.09-.06-.17l.79-1.71c.04-.08.09-.1.17-.06l.23.11c.08.04.1.09.07.15l-.04.09c-.14.3-.08.53.1,1.1l.25.84,2.41-.88c.26-.1.35-.14.4-.25v-.02c.04-.06.1-.08.17-.05Z"/>
  <path class="cls-1" d="m18.72,24.06c.12-.15.27-.23.54-.25l.75-.08c.26-.03.43.02.57.13.14.11.23.27.25.53l.08.75c.03.25-.01.43-.13.58-.11.14-.28.21-.53.23l-.75.08c-.25.03-.43-.03-.57-.15-.14-.11-.23-.29-.25-.52l-.07-.76c-.03-.25.01-.43.12-.57Z"/>
</svg>